<svg width="150" height="153" viewBox="0 0 150 153" fill="none" xmlns="http://www.w3.org/2000/svg">
<path d="M75 150C116.421 150 150 116.421 150 75C150 33.5786 116.421 0 75 0C33.5786 0 0 33.5786 0 75C0 116.421 33.5786 150 75 150Z" fill="#F1F5F9"/>
<g filter="url(#filter0_d_1_259)">
<mask id="mask0_1_259" style="mask-type:alpha" maskUnits="userSpaceOnUse" x="0" y="0" width="150" height="150">
<path d="M75 150C116.421 150 150 116.421 150 75C150 33.5786 116.421 0 75 0C33.5786 0 0 33.5786 0 75C0 116.421 33.5786 150 75 150Z" fill="#F3F3F3"/>
</mask>
<g mask="url(#mask0_1_259)">
<path d="M118 40H32C29.2386 40 27 42.2386 27 45V150C27 152.761 29.2386 155 32 155H118C120.761 155 123 152.761 123 150V45C123 42.2386 120.761 40 118 40Z" fill="white"/>
</g>
</g>
<path d="M97.7188 106H43.2812C39.8122 106 37 107.343 37 109C37 110.657 39.8122 112 43.2812 112H97.7188C101.188 112 104 110.657 104 109C104 107.343 101.188 106 97.7188 106Z" fill="#CAD5E2"/>
<path d="M66 95H40C38.3431 95 37 96.3431 37 98C37 99.6569 38.3431 101 40 101H66C67.6569 101 69 99.6569 69 98C69 96.3431 67.6569 95 66 95Z" fill="#E2E8F0"/>
<path d="M42 53.5H108C110.485 53.5 112.5 55.5147 112.5 58V68C112.5 70.4853 110.485 72.5 108 72.5H42C39.5147 72.5 37.5 70.4853 37.5 68V58C37.5 55.5147 39.5147 53.5 42 53.5Z" stroke="#62748E"/>
<path d="M108 54H42C39.7909 54 38 55.7909 38 58V68C38 70.2091 39.7909 72 42 72H108C110.209 72 112 70.2091 112 68V58C112 55.7909 110.209 54 108 54Z" stroke="#62748E" stroke-width="2"/>
<path d="M86 74C88.7614 74 91 71.7614 91 69C91 66.2386 88.7614 64 86 64C83.2386 64 81 66.2386 81 69C81 71.7614 83.2386 74 86 74Z" fill="#E2E8F0"/>
<path d="M89.907 90.37C89.107 90.37 88.36 90.37 87.68 90.327C86.8424 90.2703 86.0367 89.9837 85.3514 89.4987C84.6662 89.0137 84.1279 88.3491 83.796 87.578L79.577 79.24C79.2676 78.8797 79.1131 78.4117 79.1471 77.938C79.1812 77.4643 79.4012 77.0233 79.759 76.711C80.0522 76.4754 80.4179 76.3485 80.794 76.352C81.0709 76.3601 81.3428 76.4281 81.5909 76.5513C81.8389 76.6746 82.0573 76.8502 82.231 77.066L84.147 79.681L84.176 79.715V69.78C84.176 69.2871 84.3718 68.8144 84.7203 68.4659C85.0689 68.1173 85.5416 67.9215 86.0345 67.9215C86.5274 67.9215 87.0001 68.1173 87.3487 68.4659C87.6972 68.8144 87.893 69.2871 87.893 69.78V76.28C87.8714 76.0408 87.8999 75.7998 87.9766 75.5722C88.0534 75.3446 88.1766 75.1355 88.3386 74.9582C88.5007 74.781 88.6978 74.6394 88.9176 74.5425C89.1373 74.4456 89.3748 74.3956 89.615 74.3956C89.8552 74.3956 90.0927 74.4456 90.3124 74.5425C90.5322 74.6394 90.7294 74.781 90.8914 74.9582C91.0534 75.1355 91.1767 75.3446 91.2534 75.5722C91.3301 75.7998 91.3586 76.0408 91.337 76.28V77.635C91.3154 77.3958 91.3439 77.1548 91.4206 76.9272C91.4974 76.6996 91.6206 76.4905 91.7826 76.3132C91.9447 76.136 92.1418 75.9944 92.3616 75.8975C92.5813 75.8006 92.8188 75.7506 93.059 75.7506C93.2992 75.7506 93.5367 75.8006 93.7564 75.8975C93.9762 75.9944 94.1734 76.136 94.3354 76.3132C94.4974 76.4905 94.6207 76.6996 94.6974 76.9272C94.7741 77.1548 94.8026 77.3958 94.781 77.635V78.679C94.7594 78.4398 94.7879 78.1988 94.8646 77.9712C94.9414 77.7436 95.0646 77.5345 95.2266 77.3572C95.3887 77.18 95.5858 77.0384 95.8056 76.9415C96.0253 76.8446 96.2628 76.7946 96.503 76.7946C96.7432 76.7946 96.9807 76.8446 97.2004 76.9415C97.4202 77.0384 97.6174 77.18 97.7794 77.3572C97.9414 77.5345 98.0647 77.7436 98.1414 77.9712C98.2181 78.1988 98.2466 78.4398 98.225 78.679V85.016C98.191 86.965 97.31 90.251 94.211 90.251C93.986 90.261 92.08 90.371 89.911 90.371L89.907 90.37Z" fill="#62748E" stroke="white"/>
<defs>
<filter id="filter0_d_1_259" x="21" y="31" width="108" height="122" filterUnits="userSpaceOnUse" color-interpolation-filters="sRGB">
<feFlood flood-opacity="0" result="BackgroundImageFix"/>
<feColorMatrix in="SourceAlpha" type="matrix" values="0 0 0 0 0 0 0 0 0 0 0 0 0 0 0 0 0 0 127 0" result="hardAlpha"/>
<feOffset dy="-3"/>
<feGaussianBlur stdDeviation="3"/>
<feColorMatrix type="matrix" values="0 0 0 0 0.788235 0 0 0 0 0.803922 0 0 0 0 0.85098 0 0 0 0.349 0"/>
<feBlend mode="normal" in2="BackgroundImageFix" result="effect1_dropShadow_1_259"/>
<feBlend mode="normal" in="SourceGraphic" in2="effect1_dropShadow_1_259" result="shape"/>
</filter>
</defs>
</svg>
